# Blender 4.1.1
# www.blender.org
mtllib RATEngine_mascot.mtl
o Rat
v -1.862643 -0.000000 -0.000000
v 0.000000 2.500000 -0.000000
v 1.626042 1.767767 -0.000000
v 1.862643 -0.000000 -0.000000
v 2.092762 -0.000000 5.000000
v 2.075794 2.302908 5.000000
v 0.000000 2.953466 5.000000
v -2.092763 -0.000000 5.000000
v -2.075795 2.302908 5.000000
v -1.767767 -0.000000 6.767767
v -1.711228 1.971549 6.126377
v -0.000000 2.167926 6.995087
v 1.711227 1.971549 6.126376
v 1.767767 -0.000000 6.767766
v -0.825704 -0.000000 7.475425
v 0.825704 -0.008960 7.479197
v -0.825704 0.455396 7.475425
v 0.825704 0.455396 7.475424
v -0.000000 0.871163 7.479197
v -0.589256 -0.000000 8.953872
v 0.589255 -0.000000 8.953871
v -0.589256 0.500000 8.953872
v 0.589255 0.500000 8.953871
v -0.000000 0.750000 8.953871
v -0.510311 -0.000000 9.409244
v 0.510310 -0.000000 9.998499
v -0.510311 0.500000 9.409244
v 0.510310 0.500000 9.998499
v -0.000000 0.750000 9.703871
v -1.510311 -0.000000 10.909244
v -0.489690 -0.000000 11.498499
v -1.510311 0.500000 10.909244
v -0.489690 0.500000 11.498499
v -1.000000 0.750000 11.203871
v -1.783790 -0.000000 11.379457
v -1.102213 -0.000000 12.340883
v -1.783790 0.500000 11.379457
v -1.102213 0.500000 12.340883
v -1.443001 0.750000 11.860169
v -2.885192 -0.000000 11.910990
v -2.855710 -0.000000 13.089131
v -2.885192 0.500000 11.910990
v -2.855710 0.500000 13.089131
v -2.870450 0.750000 12.500059
v -4.014682 -0.000000 11.589285
v -4.515489 -0.000000 12.656093
v -4.014682 0.500000 11.589285
v -4.515489 0.500000 12.656093
v -4.265084 0.750000 12.122688
v -4.852535 -0.000000 10.598229
v -5.909050 -0.000000 11.120400
v -4.852535 0.500000 10.598229
v -5.909050 0.500000 11.120400
v -5.380791 0.750000 10.859316
v -4.870050 -0.000000 9.035905
v -5.957165 -0.000000 8.580859
v -4.870050 0.500000 9.035905
v -5.957165 0.500000 8.580859
v -5.413607 0.750000 8.808384
v -3.880654 -0.000000 8.177296
v -4.551071 -0.000000 7.208055
v -3.880654 0.500000 8.177296
v -4.551071 0.500000 7.208055
v -4.215863 0.750000 7.692677
v -2.909068 -0.000000 6.620042
v -4.078801 -0.000000 6.763597
v -2.986005 0.510962 6.629484
v -4.001863 0.510962 6.754156
v -3.493933 0.728075 6.691821
v -3.574512 -0.000000 4.634541
v -4.547441 -0.000000 5.299593
v -3.727097 0.526138 4.738842
v -4.394855 0.526138 5.195293
v -4.060975 0.697723 4.967067
v -5.269813 -0.000000 3.564169
v -5.687351 -0.000000 4.479825
v -5.354081 0.378755 3.748969
v -5.603082 0.378755 4.295025
v -5.478580 0.506066 4.021996
v -8.053898 -0.000000 3.738476
v -1.626042 1.767767 -0.000000
v -1.250000 1.767767 -1.250000
v -1.289167 -0.000000 -1.767767
v 0.000000 1.029005 -4.627954
v 0.000000 -0.000000 -2.500000
v 1.250000 1.767767 -1.250000
v 1.289167 -0.000000 -1.767767
v 0.000000 1.603200 -5.049285
v 0.000000 1.985486 -4.975731
v 0.000000 2.361612 -4.216848
v 0.000000 2.753568 -2.651921
v 0.000000 2.630132 -0.971295
v -1.250000 1.767767 -2.500000
v -1.000000 1.925680 -3.952408
v -1.000000 1.434685 -4.046877
v -1.250000 1.267767 -2.500000
v -0.659053 2.369459 -1.110647
v -0.892955 2.906880 -1.261755
v -1.222952 3.665096 -1.842148
v -1.028433 3.218161 -1.883185
v -0.932279 2.997234 -1.893121
v -0.730101 2.532701 -1.709902
v -0.652148 2.353594 -1.451831
v -0.727879 3.482912 -2.068242
v -1.472742 3.158725 -2.023456
v -1.328472 2.824799 -1.998028
v -0.571321 3.154334 -2.101727
v -0.439196 2.659311 -1.895836
v -1.048506 2.394121 -1.821210
v -0.774914 2.224149 -1.526520
v -0.470089 2.459126 -1.494184
v 1.250000 1.767767 -2.500000
v 1.000000 1.925680 -3.952408
v 1.000000 1.434685 -4.046877
v 1.250000 1.267767 -2.500000
v 0.659053 2.369459 -1.110647
v 0.892955 2.906880 -1.261755
v 1.222952 3.665096 -1.842148
v 1.028433 3.218161 -1.883185
v 0.932279 2.997234 -1.893121
v 0.730101 2.532701 -1.709902
v 0.652148 2.353594 -1.451831
v -0.503487 2.467658 -2.593001
v -0.677362 2.278711 -2.856169
v -0.809857 2.158992 -2.558920
v -0.695667 2.300512 -2.262473
v -0.753666 2.403622 -2.569403
v 0.727879 3.482912 -2.068242
v 1.472742 3.158725 -2.023456
v 1.328472 2.824799 -1.998028
v 0.571321 3.154334 -2.101727
v 0.439196 2.659311 -1.895836
v 1.048506 2.394121 -1.821210
v 0.774914 2.224149 -1.526520
v 0.470089 2.459126 -1.494184
v 0.503487 2.467658 -2.593001
v 0.677362 2.278711 -2.856169
v 0.809857 2.158992 -2.558920
v 0.695667 2.300512 -2.262473
v 0.753666 2.403622 -2.569403
vn -0.4092 0.9087 -0.0824
vn 0.2810 0.8930 0.3516
vn 0.9798 0.0867 0.1801
vn -0.9798 0.0867 0.1801
vn -0.2810 0.8930 0.3516
vn 0.2798 0.8927 0.3532
vn -0.2798 0.8927 0.3532
vn 0.2966 0.9464 -0.1280
vn 0.9901 0.1325 -0.0456
vn -0.9959 0.0073 -0.0904
vn -0.6006 -0.0000 0.7995
vn -0.6559 0.2505 0.7120
vn -0.1775 0.3442 0.9220
vn 0.4584 0.3108 0.8326
vn 0.2772 0.5433 0.7925
vn 0.6559 0.2505 0.7120
vn 0.6026 0.0065 0.7980
vn 0.4494 0.8922 0.0450
vn -0.9875 -0.0000 0.1579
vn -0.3895 0.9180 0.0754
vn 0.9874 0.0013 0.1583
vn -0.0000 1.0000 -0.0061
vn 0.9972 -0.0000 0.0754
vn -0.0000 1.0000 -0.0000
vn 0.4247 0.9048 0.0321
vn -0.9853 -0.0000 0.1708
vn -0.4399 0.8980 -0.0000
vn 0.3255 0.9203 0.2170
vn -0.8321 -0.0000 -0.5547
vn -0.3255 0.9203 -0.2170
vn 0.8321 -0.0000 0.5547
vn 0.3305 0.9127 0.2403
vn -0.8644 -0.0000 -0.5028
vn -0.3423 0.9108 -0.2310
vn 0.8088 -0.0000 0.5881
vn -0.1709 0.9085 -0.3813
vn 0.3925 -0.0000 0.9198
vn 0.1630 0.9097 0.3820
vn -0.4346 -0.0000 -0.9006
vn -0.1020 0.9148 0.3908
vn 0.2739 -0.0000 -0.9618
vn 0.1057 0.9144 -0.3907
vn -0.2525 -0.0000 0.9676
vn 0.7637 -0.0000 -0.6456
vn 0.3145 0.9077 -0.2778
vn -0.7405 -0.0000 0.6720
vn -0.3093 0.9086 0.2807
vn -0.9998 -0.0000 0.0189
vn -0.4245 0.9054 0.0080
vn 0.9999 -0.0000 -0.0112
vn 0.4250 0.9052 -0.0068
vn -0.2924 0.9082 -0.2995
vn 0.6554 -0.0000 0.7553
vn 0.2877 0.9066 0.3088
vn -0.6986 -0.0000 -0.7155
vn 0.3462 0.9096 0.2298
vn -0.6853 -0.0000 -0.7282
vn -0.2611 0.9195 -0.2937
vn 0.8658 -0.0000 0.5004
vn -0.3800 0.9190 0.1047
vn 0.9215 0.1454 -0.3601
vn 0.3747 0.9166 -0.1393
vn -0.9420 0.1474 0.3015
vn 0.1239 0.9198 -0.3724
vn -0.5167 0.4655 0.7185
vn -0.3176 0.9066 0.2779
vn 0.4268 0.4715 -0.7717
vn -0.2169 0.9189 0.3296
vn -0.0565 0.4276 -0.9022
vn -0.1213 0.8773 -0.4644
vn -0.2639 0.4698 0.8424
vn 0.3906 0.9206 -0.0000
vn -0.3897 0.9185 0.0676
vn 0.3244 0.9202 0.2190
vn -0.3376 0.9206 -0.1964
vn -0.1718 0.9186 -0.3559
vn 0.1624 0.9178 0.3622
vn -0.1033 0.9184 0.3819
vn 0.1082 0.9187 -0.3798
vn 0.3058 0.9163 -0.2586
vn -0.3016 0.9155 0.2664
vn -0.4202 0.9074 0.0067
vn 0.4195 0.9078 -0.0047
vn -0.2686 0.9191 -0.2883
vn 0.2573 0.9197 0.2965
vn 0.4063 0.8813 0.2411
vn -0.6359 0.0816 -0.7675
vn -0.4056 0.8594 -0.3114
vn 0.8426 0.1172 0.5257
vn -0.3921 0.9130 0.1128
vn 0.8983 0.3202 -0.3011
vn 0.3753 0.9163 -0.1398
vn -0.9201 0.3134 0.2350
vn 0.1731 0.8921 -0.4174
vn -0.5911 0.3183 0.7411
vn -0.2963 0.9196 0.2579
vn 0.5081 0.3069 -0.8048
vn 0.3895 0.9180 0.0754
vn -0.4494 0.8922 0.0450
vn 0.9875 -0.0000 0.1579
vn 0.0054 1.0000 -0.0009
vn -0.9453 0.1108 -0.3067
vn -0.4075 0.9049 -0.1226
vn 0.9498 0.1271 -0.2857
vn 0.6995 -0.6897 -0.1875
vn 0.4075 0.9049 -0.1226
vn 0.4440 -0.4378 -0.7818
vn 0.7079 0.6147 0.3478
vn -0.9996 0.0251 -0.0100
vn -1.0000 -0.0000 -0.0000
vn -0.4727 0.8660 0.1631
vn -0.8911 -0.2896 0.3494
vn -0.7079 0.6147 0.3478
vn -0.6665 0.7447 -0.0337
vn -0.4379 0.8721 -0.2184
vn -0.4529 0.7988 -0.3959
vn -0.7128 0.1325 -0.6888
vn -0.5781 -0.4827 -0.6579
vn -0.5258 -0.7658 -0.3703
vn -0.6995 -0.6897 -0.1875
vn -0.4440 -0.4378 -0.7818
vn -0.9873 0.0301 -0.1563
vn -0.9855 -0.0000 -0.1696
vn 1.0000 -0.0000 -0.0000
vn 0.6665 0.7447 -0.0337
vn 0.4529 0.7988 -0.3959
vn 0.4379 0.8721 -0.2184
vn 0.7128 0.1325 -0.6888
vn 0.5781 -0.4827 -0.6579
vn 0.5258 -0.7658 -0.3703
vn 0.4727 0.8660 0.1631
vn 0.8911 -0.2896 0.3494
vn 0.9996 0.0251 -0.0100
vn 0.3019 -0.4337 -0.8490
vn 0.9873 0.0301 -0.1563
vn 0.7491 0.4601 0.4766
vn 0.6563 -0.2032 -0.7266
vn 0.4866 -0.6420 -0.5925
vn 0.3946 -0.1834 -0.9004
vn 0.3218 -0.1730 -0.9309
vn 0.2431 0.0312 -0.9695
vn 0.2771 0.1632 -0.9469
vn 0.2698 0.2038 -0.9411
vn -0.7621 0.1504 0.6298
vn -0.8033 -0.3083 0.5095
vn -0.8020 -0.3123 0.5092
vn -0.7789 -0.3392 0.5275
vn 0.5001 0.6530 0.5688
vn 0.8338 0.3541 0.4236
vn 0.8131 0.3949 0.4277
vn 0.7657 0.5502 0.3331
vn 0.3940 -0.8344 -0.3855
vn -0.0058 -0.8223 -0.5690
vn -0.3237 -0.4657 -0.8236
vn -0.3019 -0.4337 -0.8490
vn -0.4544 -0.1267 -0.8817
vn -0.4236 -0.1442 -0.8943
vn -0.4469 -0.1130 -0.8874
vn -0.3736 0.9270 0.0327
vn -0.4060 0.9114 0.0669
vn -0.4983 0.8668 0.0181
vn -0.6810 0.7207 -0.1298
vn -0.7375 0.6434 -0.2051
vn -0.7068 0.7057 -0.0497
vn 0.7375 0.6434 -0.2051
vn 0.0058 -0.8223 -0.5690
vn -0.8131 0.3949 0.4277
vn -0.7657 0.5502 0.3331
vn -0.3940 -0.8344 -0.3855
vn -0.2771 0.1632 -0.9469
vn -0.4866 -0.6420 -0.5925
vn -0.3946 -0.1834 -0.9004
vn -0.3218 -0.1730 -0.9309
vn -0.2431 0.0312 -0.9695
vn -0.8338 0.3541 0.4236
vn 0.4544 -0.1267 -0.8817
vn -0.6563 -0.2032 -0.7266
vn -0.2698 0.2038 -0.9411
vn 0.8033 -0.3083 0.5095
vn 0.7068 0.7057 -0.0497
vn 0.4983 0.8668 0.0181
vn -0.5001 0.6530 0.5688
vn 0.7789 -0.3392 0.5275
vn 0.8020 -0.3123 0.5092
vn 0.7621 0.1504 0.6298
vn 0.9855 -0.0000 -0.1696
vn -0.7491 0.4601 0.4766
vn 0.4060 0.9114 0.0669
vn 0.3736 0.9270 0.0327
vn 0.6810 0.7207 -0.1298
vn 0.3237 -0.4657 -0.8236
vn 0.4236 -0.1442 -0.8943
vn 0.4469 -0.1130 -0.8874
vn -0.4469 0.8690 0.2125
vn -0.7318 0.6801 -0.0428
vn -0.6644 0.7474 -0.0000
vn -0.9403 0.2269 0.2539
vn -0.2613 0.8576 -0.4431
vn -0.2019 0.9163 0.3460
vn -0.9225 0.1977 -0.3316
vn -0.6995 0.7142 -0.0241
vn -0.5494 0.8289 -0.1053
vn -0.4995 0.8255 -0.2627
vn 0.4469 0.8690 0.2125
vn 0.7318 0.6801 -0.0428
vn 0.6644 0.7474 -0.0000
vn 0.9403 0.2269 0.2539
vn 0.2613 0.8576 -0.4431
vn 0.2019 0.9163 0.3460
vn 0.9225 0.1977 -0.3316
vn 0.6995 0.7142 -0.0241
vn 0.5494 0.8289 -0.1053
vn 0.4995 0.8255 -0.2627
vn -0.2966 0.9464 -0.1280
vn 0.9508 0.0070 0.3098
vn -0.9508 0.0070 0.3098
vn 0.4092 0.9087 -0.0824
vn 0.9959 0.0073 -0.0904
vn -0.9901 0.1325 -0.0456
vn -0.9498 0.1271 -0.2857
vn 0.9453 0.1108 -0.3067
vn -0.4468 0.4347 0.7819
vn 0.3873 0.9138 0.1224
vn -0.3873 0.9138 0.1224
vt 0.500000 0.750000
vt 0.437500 1.000000
vt 0.875000 0.750000
vt 0.812500 1.000000
vt 0.750000 0.750000
vt 1.000000 0.500000
vt 0.875000 0.500000
vt 0.625000 0.750000
vt 0.500000 0.500000
vt 0.625000 0.500000
vt 0.687500 1.000000
vt 1.000000 0.750000
vt 0.937500 1.000000
vt 0.562500 1.000000
vt 0.000000 0.750000
vt 0.062500 1.000000
vt 0.000000 0.500000
vt 0.000000 0.000000
vt 0.375000 0.750000
vt 0.375000 0.500000
vt 0.187500 0.375000
s 0
f 81/1/1 7/2/1 2/2/1
f 13/3/2 7/4/2 12/5/2
f 5/6/3 13/3/3 14/7/3
f 11/8/4 8/9/4 10/10/4
f 12/5/5 7/11/5 11/8/5
f 6/12/6 7/13/6 13/3/6
f 11/8/7 7/14/7 9/1/7
f 3/15/8 7/16/8 6/15/8
f 3/15/9 5/17/9 4/17/9
f 81/1/10 8/9/10 9/1/10
f 15/18/11 17/18/11 10/18/11
f 10/18/12 17/18/12 11/8/12
f 12/5/13 17/18/13 19/18/13
f 13/3/14 12/5/14 19/18/14
f 19/18/15 18/18/15 13/3/15
f 14/7/16 13/3/16 18/18/16
f 14/7/17 18/18/17 16/18/17
f 19/18/18 23/18/18 18/18/18
f 17/18/19 20/18/19 22/18/19
f 19/18/20 22/18/20 24/18/20
f 18/18/21 21/18/21 16/18/21
f 16/18/22 20/18/22 21/18/22
f 23/18/23 26/18/23 21/18/23
f 21/18/24 25/18/24 26/18/24
f 23/18/25 29/18/25 28/18/25
f 20/18/26 27/18/26 22/18/26
f 24/18/27 27/18/27 29/18/27
f 29/18/28 33/18/28 28/18/28
f 25/18/29 32/18/29 27/18/29
f 27/18/30 34/18/30 29/18/30
f 28/18/31 31/18/31 26/18/31
f 25/18/24 31/18/24 26/18/24
f 33/18/32 39/18/32 38/18/32
f 30/18/33 37/18/33 32/18/33
f 34/18/34 37/18/34 39/18/34
f 33/18/35 36/18/35 31/18/35
f 31/18/24 35/18/24 36/18/24
f 39/18/36 42/18/36 44/18/36
f 38/18/37 41/18/37 36/18/37
f 36/18/24 40/18/24 41/18/24
f 38/18/38 44/18/38 43/18/38
f 35/18/39 42/18/39 37/18/39
f 40/18/24 46/18/24 41/18/24
f 44/18/40 48/18/40 43/18/40
f 40/18/41 47/18/41 42/18/41
f 42/18/42 49/18/42 44/18/42
f 43/18/43 46/18/43 41/18/43
f 45/18/44 52/18/44 47/18/44
f 47/18/45 54/18/45 49/18/45
f 48/18/46 51/18/46 46/18/46
f 45/18/24 51/18/24 46/18/24
f 49/18/47 53/18/47 48/18/47
f 53/18/48 56/18/48 51/18/48
f 50/18/24 56/18/24 51/18/24
f 54/18/49 58/18/49 53/18/49
f 50/18/50 57/18/50 52/18/50
f 52/18/51 59/18/51 54/18/51
f 59/18/52 63/18/52 58/18/52
f 55/18/53 62/18/53 57/18/53
f 57/18/54 64/18/54 59/18/54
f 58/18/55 61/18/55 56/18/55
f 55/18/24 61/18/24 56/18/24
f 62/18/56 69/18/56 64/18/56
f 63/18/57 66/18/57 61/18/57
f 60/18/24 66/18/24 61/18/24
f 64/18/58 68/18/58 63/18/58
f 60/18/59 67/18/59 62/18/59
f 69/18/60 73/18/60 68/18/60
f 65/18/61 72/18/61 67/18/61
f 67/18/62 74/18/62 69/18/62
f 68/18/63 71/18/63 66/18/63
f 65/18/24 71/18/24 66/18/24
f 74/18/64 77/18/64 79/18/64
f 71/18/65 78/18/65 76/18/65
f 71/18/24 75/18/24 76/18/24
f 73/18/66 79/18/66 78/18/66
f 72/18/67 75/18/67 77/18/67
f 78/18/68 79/18/68 80/18/68
f 77/18/69 75/18/69 80/18/69
f 79/18/70 77/18/70 80/18/70
f 76/18/71 78/18/71 80/18/71
f 76/18/24 75/18/24 80/18/24
f 23/18/23 28/18/23 26/18/23
f 21/18/24 20/18/24 25/18/24
f 23/18/72 24/18/72 29/18/72
f 20/18/26 25/18/26 27/18/26
f 24/18/73 22/18/73 27/18/73
f 29/18/28 34/18/28 33/18/28
f 25/18/29 30/18/29 32/18/29
f 27/18/30 32/18/30 34/18/30
f 28/18/31 33/18/31 31/18/31
f 25/18/24 30/18/24 31/18/24
f 33/18/74 34/18/74 39/18/74
f 30/18/33 35/18/33 37/18/33
f 34/18/75 32/18/75 37/18/75
f 33/18/35 38/18/35 36/18/35
f 31/18/24 30/18/24 35/18/24
f 39/18/76 37/18/76 42/18/76
f 38/18/37 43/18/37 41/18/37
f 36/18/24 35/18/24 40/18/24
f 38/18/77 39/18/77 44/18/77
f 35/18/39 40/18/39 42/18/39
f 40/18/24 45/18/24 46/18/24
f 44/18/78 49/18/78 48/18/78
f 40/18/41 45/18/41 47/18/41
f 42/18/79 47/18/79 49/18/79
f 43/18/43 48/18/43 46/18/43
f 45/18/44 50/18/44 52/18/44
f 47/18/80 52/18/80 54/18/80
f 48/18/46 53/18/46 51/18/46
f 45/18/24 50/18/24 51/18/24
f 49/18/81 54/18/81 53/18/81
f 53/18/48 58/18/48 56/18/48
f 50/18/24 55/18/24 56/18/24
f 54/18/82 59/18/82 58/18/82
f 50/18/50 55/18/50 57/18/50
f 52/18/83 57/18/83 59/18/83
f 59/18/84 64/18/84 63/18/84
f 55/18/53 60/18/53 62/18/53
f 57/18/85 62/18/85 64/18/85
f 58/18/55 63/18/55 61/18/55
f 55/18/24 60/18/24 61/18/24
f 62/18/86 67/18/86 69/18/86
f 63/18/87 68/18/87 66/18/87
f 60/18/24 65/18/24 66/18/24
f 64/18/88 69/18/88 68/18/88
f 60/18/89 65/18/89 67/18/89
f 69/18/90 74/18/90 73/18/90
f 65/18/91 70/18/91 72/18/91
f 67/18/92 72/18/92 74/18/92
f 68/18/93 73/18/93 71/18/93
f 65/18/24 70/18/24 71/18/24
f 74/18/94 72/18/94 77/18/94
f 71/18/95 73/18/95 78/18/95
f 71/18/24 70/18/24 75/18/24
f 73/18/96 74/18/96 79/18/96
f 72/18/97 70/18/97 75/18/97
f 19/18/98 24/18/98 23/18/98
f 17/18/19 15/18/19 20/18/19
f 19/18/99 17/18/99 22/18/99
f 18/18/100 23/18/100 21/18/100
f 16/18/101 15/18/101 20/18/101
f 1/9/102 82/19/102 83/20/102
f 81/1/103 2/2/103 82/19/103
f 4/9/104 86/19/104 3/1/104
f 114/18/105 115/18/105 85/18/105
f 3/1/106 86/19/106 2/2/106
f 115/18/107 87/20/107 85/18/107
f 116/21/108 2/2/108 86/19/108
f 83/20/109 82/19/109 96/18/109
f 96/18/110 82/19/110 93/18/110
f 123/18/111 126/18/111 91/18/111
f 98/18/112 110/18/112 97/18/112
f 2/2/113 97/21/113 82/19/113
f 125/18/114 94/18/114 93/18/114
f 91/18/115 90/18/115 94/18/115
f 90/18/116 89/18/116 94/18/116
f 89/18/117 88/18/117 94/18/117
f 94/18/117 88/18/117 95/18/117
f 88/18/118 84/18/118 95/18/118
f 84/18/119 85/18/119 95/18/119
f 95/18/120 85/18/120 96/18/120
f 96/18/121 85/18/121 83/20/121
f 95/18/122 96/18/122 94/18/122
f 94/18/123 96/18/123 93/18/123
f 115/18/124 112/18/124 86/19/124
f 138/18/125 112/18/125 113/18/125
f 90/18/126 113/18/126 89/18/126
f 91/18/127 113/18/127 90/18/127
f 89/18/128 113/18/128 88/18/128
f 88/18/129 114/18/129 84/18/129
f 84/18/130 114/18/130 85/18/130
f 136/18/131 91/18/131 139/18/131
f 117/18/132 116/18/132 134/18/132
f 87/20/133 115/18/133 86/19/133
f 120/18/134 132/18/134 131/18/134
f 114/18/135 113/18/135 115/18/135
f 98/18/136 97/18/136 111/18/136
f 110/18/137 109/18/137 103/18/137
f 103/18/138 109/18/138 102/18/138
f 102/18/139 109/18/139 101/18/139
f 109/18/140 106/18/140 101/18/140
f 106/18/141 105/18/141 101/18/141
f 101/18/142 105/18/142 100/18/142
f 100/18/143 105/18/143 99/18/143
f 99/18/144 105/18/144 98/18/144
f 105/18/145 106/18/145 98/18/145
f 106/18/146 109/18/146 98/18/146
f 109/18/147 110/18/147 98/18/147
f 99/18/148 98/18/148 104/18/148
f 104/18/149 98/18/149 107/18/149
f 107/18/150 98/18/150 108/18/150
f 108/18/151 98/18/151 111/18/151
f 108/18/152 111/18/152 103/18/152
f 103/18/153 102/18/153 108/18/153
f 102/18/154 101/18/154 108/18/154
f 101/18/155 107/18/155 108/18/155
f 107/18/156 101/18/156 104/18/156
f 101/18/157 100/18/157 104/18/157
f 100/18/158 99/18/158 104/18/158
f 97/21/159 92/18/159 111/18/159
f 92/18/160 91/18/160 111/18/160
f 111/18/161 91/18/161 103/18/161
f 103/18/162 91/18/162 110/18/162
f 91/18/163 82/19/163 110/18/163
f 110/18/164 82/19/164 97/21/164
f 113/18/128 114/18/128 88/18/128
f 91/18/165 134/18/165 86/19/165
f 122/18/166 132/18/166 121/18/166
f 131/18/167 132/18/167 117/18/167
f 132/18/168 135/18/168 117/18/168
f 132/18/169 122/18/169 135/18/169
f 120/18/170 119/18/170 129/18/170
f 122/18/171 121/18/171 133/18/171
f 121/18/172 120/18/172 133/18/172
f 133/18/173 120/18/173 130/18/173
f 130/18/174 120/18/174 129/18/174
f 128/18/175 131/18/175 117/18/175
f 131/18/176 128/18/176 120/18/176
f 134/18/177 122/18/177 133/18/177
f 119/18/178 118/18/178 129/18/178
f 129/18/179 117/18/179 130/18/179
f 134/18/180 116/21/180 86/19/180
f 135/18/181 122/18/181 91/18/181
f 118/18/182 128/18/182 117/18/182
f 133/18/183 117/18/183 134/18/183
f 130/18/184 117/18/184 133/18/184
f 118/18/185 117/18/185 129/18/185
f 113/18/186 112/18/186 115/18/186
f 117/18/187 135/18/187 116/18/187
f 92/18/188 135/18/188 91/18/188
f 116/21/189 135/18/189 92/18/189
f 122/18/190 134/18/190 91/18/190
f 121/18/191 132/18/191 120/18/191
f 120/18/192 128/18/192 119/18/192
f 119/18/193 128/18/193 118/18/193
f 91/18/194 126/18/194 82/19/194
f 126/18/195 125/18/195 82/19/195
f 93/18/196 82/19/196 125/18/196
f 127/18/197 125/18/197 126/18/197
f 124/18/198 127/18/198 123/18/198
f 127/18/199 126/18/199 123/18/199
f 127/18/200 124/18/200 125/18/200
f 125/18/201 124/18/201 94/18/201
f 94/18/202 124/18/202 91/18/202
f 124/18/203 123/18/203 91/18/203
f 91/18/204 86/19/204 139/18/204
f 139/18/205 86/19/205 138/18/205
f 112/18/206 138/18/206 86/19/206
f 140/18/207 139/18/207 138/18/207
f 137/18/208 136/18/208 140/18/208
f 140/18/209 136/18/209 139/18/209
f 140/18/210 138/18/210 137/18/210
f 138/18/211 113/18/211 137/18/211
f 113/18/212 91/18/212 137/18/212
f 137/18/213 91/18/213 136/18/213
f 81/1/214 9/1/214 7/2/214
f 5/6/215 6/12/215 13/3/215
f 11/8/216 9/1/216 8/9/216
f 3/15/217 2/16/217 7/16/217
f 3/15/218 6/15/218 5/17/218
f 81/1/219 1/9/219 8/9/219
f 1/9/220 81/1/220 82/19/220
f 4/9/221 87/20/221 86/19/221
f 12/5/222 11/8/222 17/18/222
f 116/21/223 92/18/223 2/2/223
f 2/2/224 92/18/224 97/21/224
